<svg width="250" height="250" viewBox="0 0 250 250" fill="none" xmlns="http://www.w3.org/2000/svg">
<path d="M21.9995 138.878C21.8245 136.653 21.6895 134.425 21.582 132.203" stroke="black" stroke-width="4.05" stroke-miterlimit="10"/>
<path d="M148.535 218.91H85.0303" stroke="#002BFF" stroke-opacity="0.25" stroke-width="4.05" stroke-miterlimit="10"/>
<path d="M167.075 59.8225C167.075 59.8225 185.79 50.985 201.668 68.2275C206.855 73.8625 210.395 81.34 210.645 89.055C210.759 92.8195 210.152 96.5707 208.858 100.107C207.54 103.717 205.175 106.107 203.358 109.322C200.57 114.28 206.398 115.157 209.525 117.56C211.604 119.17 213.575 120.914 215.428 122.78C219.602 126.949 223.275 131.591 226.373 136.612C232.506 146.614 236.199 157.919 237.153 169.612C238.095 181.142 237.373 193.662 231.46 203.905C228.615 208.837 224.33 213.675 219.06 215.975C212.06 219.027 204.198 218.912 196.718 218.912H180.8" stroke="#002BFF" stroke-opacity="0.25" stroke-width="4.05" stroke-miterlimit="10"/>
<path d="M89.063 175.035C88.4355 179.5 87.5005 184.623 86.468 189.75L85.2505 190.098C81.354 191.192 77.216 191.071 73.3905 189.75L74.9855 184.33L65.2755 156.08C65.2755 156.08 72.698 153.68 78.793 151.898L79.493 151.867C82.823 152.57 89.6855 155.208 89.9005 165.085C89.9155 165.56 89.9005 166.06 89.9005 166.605C90.868 169.792 90.483 172.603 89.063 175.035Z" fill="#002BFF"/>
<path d="M66.208 67.5C66.1123 67.2563 65.9248 67.06 65.686 66.953C65.4473 66.8458 65.176 66.8368 64.9305 66.9275C64.7928 66.969 64.6658 67.0398 64.558 67.135C64.173 67.4475 64.0855 67.995 64.073 68.515C64.038 69.7025 63.9705 70.8925 63.883 72.075C63.883 72.155 63.8705 72.245 63.8705 72.325C63.8155 73.2775 63.8555 74.4325 63.4505 75.2625C63.4245 75.3258 63.38 75.3798 63.323 75.4175C63.188 75.48 63.0455 75.345 62.958 75.2225C62.708 74.8575 62.458 74.5 62.208 74.1275C62.0105 73.83 61.788 73.5075 61.443 73.4125C60.9305 73.27 60.443 73.7225 60.1605 74.1825C59.248 75.6825 59.1605 78.14 60.573 79.3975C61.9855 80.655 58.823 83.1275 56.558 84.1675C56.1788 84.3808 55.7813 84.5598 55.3705 84.7025C55.3505 84.7025 56.188 84.89 56.168 84.8975C54.4055 85.511 52.5695 85.8885 50.708 86.02C48.498 86.1675 46.343 85.89 44.7755 84.93C44.843 84.68 45.378 82.93 45.4105 82.68C45.5255 81.8075 45.608 80.9425 45.6605 80.065C45.7555 78.4175 45.748 76.7675 45.6855 75.125C45.458 69.215 46.5105 64.25 48.9505 63.4925C49.143 63.4348 49.3278 63.3533 49.5005 63.25C50.6005 62.6425 51.188 61.36 50.683 60.15C50.648 60.0675 50.608 59.9875 50.573 59.9C50.5335 59.8138 50.4883 59.7303 50.438 59.65C55.203 58.17 58.438 59.1975 61.708 60.9875C62.3303 61.4848 62.915 62.027 63.458 62.61C64.7378 63.9995 65.679 65.6663 66.208 67.48V67.5Z" fill="#002BFF"/>
<path d="M180.75 124.323H164.5V85.4825C164.5 85.4825 161.5 119.23 153.28 138.35H102.952C108.885 134.58 113.642 128.885 116.81 122.755C118.06 120.33 120.06 116.73 123.385 117.675C124.175 117.898 125.337 118.04 125.925 117.318C126.128 117.04 126.243 116.708 126.255 116.365C126.54 112.825 122.87 109.845 119.845 108.905C116.82 107.965 113.285 108.405 110.877 110.603C109.142 112.19 108.055 114.298 106.785 116.25C106.023 117.407 105.119 118.465 104.095 119.398C105.4 111.473 106.562 103.898 106.73 101.11C109.912 98.5975 112.25 94.5 113.08 90.875C113.992 86.915 114.797 83.0425 116.215 79.335L127.817 79.375C128.254 79.375 128.673 79.2015 128.982 78.8925C129.291 78.5835 129.465 78.1645 129.465 77.7275V58.4575C129.465 58.0245 129.295 57.609 128.99 57.3015C128.685 56.9943 128.27 56.8203 127.837 56.8175L119.937 56.75C122.808 56.15 125.719 55.7613 128.647 55.5875C128.707 55.5875 128.762 55.5875 128.815 55.5875C130.742 55.46 134.12 55.405 136.065 55.385C133.747 56.635 132.315 59.29 132.565 61.635C132.609 62.1345 132.736 62.623 132.942 63.08C134.922 67.43 140.137 68.715 144.442 67.45C149.232 66.0525 152.752 61.6475 152.542 56.58C155.542 57.02 158.512 57.5783 161.452 58.255C165.92 59.2825 170.277 60.6675 173.81 63.6875C176.89 66.31 179.5 69.6875 180.707 73.505C185.892 89.8275 184.297 108.043 180.75 124.323Z" fill="black"/>
<path d="M106.86 101.11C106.495 107.075 105.555 113.035 104.535 118.98" stroke="black" stroke-width="4.05" stroke-miterlimit="10"/>
<path d="M116.345 79.335C114.925 83.0425 114.123 86.915 113.21 90.875C112.373 94.4875 110.04 98.5975 106.86 101.11C104.19 103.217 100.92 104.21 97.4203 102.88C92.7253 101.09 91.0778 95.915 90.5028 91.3525C89.7555 85.6712 89.7101 79.9197 90.3678 74.2275C91.0303 75.7 93.7378 80.18 102.135 79.0025C102.361 79.171 102.632 79.2677 102.913 79.28L116.345 79.335Z" fill="black"/>
<path d="M111.63 66.5175C113.585 66.0175 114.775 67.8975 114.485 69.3275C114.013 71.66 110.658 72.5775 108.66 72.62C107.06 72.6525 103.16 72.23 101.57 72.045" stroke="black" stroke-width="4.05" stroke-miterlimit="10"/>
<path d="M100.913 67.6725C103.331 68.3715 105.892 68.4138 108.333 67.795C110.385 67.2675 112.81 66.295 113.885 64.3425C114.513 63.2075 114.013 61.3975 112.703 60.9975C111.19 60.54 109.79 62.045 108.42 62.425C107.536 62.6658 106.634 62.833 105.723 62.925C105.473 62.9525 105.238 62.9725 104.995 62.9925C103.719 63.0948 102.437 63.0855 101.163 62.965C101.027 62.965 100.895 62.9223 100.785 62.843C100.675 62.7635 100.593 62.6515 100.55 62.5228C100.508 62.3943 100.507 62.2553 100.548 62.126C100.588 61.9968 100.669 61.8835 100.778 61.8025L101.008 61.635" stroke="black" stroke-width="4.05" stroke-miterlimit="10"/>
<path d="M116.345 79.335C114.925 83.0425 114.123 86.915 113.21 90.875C111.67 97.5225 105.103 105.805 97.4203 102.875C92.7253 101.085 91.0778 95.91 90.5028 91.3475C89.6028 84.2825 89.6778 77.025 91.0028 70.02C92.1028 64.25 94.0553 58.19 99.6703 55.3525L102.305 54.035C102.934 53.7175 103.661 53.6585 104.333 53.8705C105.004 54.0828 105.566 54.5493 105.898 55.17C106.1 55.556 106.207 55.9845 106.21 56.42C106.213 56.4838 106.208 56.5475 106.195 56.61" stroke="black" stroke-width="4.05" stroke-miterlimit="10"/>
<path d="M169.865 133.565C171.223 133.523 172.582 133.557 173.935 133.667C175.04 133.757 176.185 133.81 177.238 134.222C178.105 134.567 179.01 135.39 178.965 136.395C178.883 138.365 176.303 138.35 174.888 138.35" stroke="black" stroke-width="4.05" stroke-miterlimit="10"/>
<path opacity="0.54" d="M145.585 131.688L157.35 101.545C157.495 100.961 157.506 100.351 157.38 99.7623C157.255 99.1733 156.996 98.621 156.625 98.147C156.254 97.673 155.78 97.29 155.238 97.027C154.696 96.7643 154.102 96.6283 153.5 96.63H106.78C105.732 96.6323 104.717 96.9868 103.895 97.636C103.074 98.2853 102.494 99.1918 102.25 100.21L89.3547 130.345C89.215 130.927 89.2087 131.533 89.3367 132.117C89.465 132.702 89.724 133.25 90.0942 133.719C90.4645 134.189 90.9367 134.569 91.475 134.831C92.0132 135.092 92.604 135.227 93.2022 135.228H141.052C142.094 135.227 143.106 134.878 143.927 134.237C144.748 133.596 145.332 132.698 145.585 131.688Z" fill="white"/>
<path d="M145.585 131.688L157.35 101.545C157.495 100.961 157.506 100.351 157.38 99.7623C157.255 99.1733 156.996 98.621 156.625 98.147C156.254 97.673 155.78 97.29 155.238 97.027C154.696 96.7643 154.102 96.6283 153.5 96.63H106.78C105.732 96.6323 104.717 96.9868 103.895 97.636C103.074 98.2853 102.494 99.1918 102.25 100.21L89.3547 130.345C89.215 130.927 89.2087 131.533 89.3367 132.117C89.465 132.702 89.724 133.25 90.0942 133.719C90.4645 134.189 90.9367 134.569 91.475 134.831C92.0132 135.092 92.604 135.227 93.2022 135.228H141.052C142.094 135.227 143.106 134.878 143.927 134.237C144.748 133.596 145.332 132.698 145.585 131.688Z" fill="#002BFF"/>
<path d="M145.585 131.688L157.35 101.545C157.495 100.961 157.506 100.351 157.38 99.7623C157.255 99.1733 156.996 98.621 156.625 98.147C156.254 97.673 155.78 97.29 155.238 97.027C154.696 96.7643 154.102 96.6283 153.5 96.63H106.78C105.732 96.6323 104.717 96.9868 103.895 97.636C103.074 98.2853 102.494 99.1918 102.25 100.21L89.3547 130.345C89.215 130.927 89.2087 131.533 89.3367 132.117C89.465 132.702 89.724 133.25 90.0942 133.719C90.4645 134.189 90.9367 134.569 91.475 134.831C92.0132 135.092 92.604 135.227 93.2022 135.228H141.052C142.094 135.227 143.106 134.878 143.927 134.237C144.748 133.596 145.332 132.698 145.585 131.688Z" stroke="black" stroke-width="4.05" stroke-linecap="square" stroke-linejoin="round"/>
<path d="M143.863 130.467L154.718 102.66C154.852 102.122 154.862 101.56 154.747 101.017C154.632 100.475 154.395 99.9653 154.053 99.528C153.712 99.091 153.275 98.7372 152.776 98.4942C152.278 98.251 151.73 98.1248 151.175 98.125H108.063C107.095 98.1248 106.155 98.4502 105.395 99.0495C104.635 99.6487 104.099 100.486 103.873 101.427L92.0001 129.23C91.8721 129.766 91.8673 130.325 91.9861 130.863C92.1048 131.402 92.3438 131.907 92.6853 132.34C93.0268 132.773 93.4621 133.123 93.9583 133.363C94.4543 133.604 94.9986 133.729 95.5501 133.73H139.683C140.644 133.731 141.577 133.41 142.335 132.819C143.092 132.228 143.63 131.4 143.863 130.467Z" fill="#002BFF"/>
<path d="M111.172 103.25C111.745 102.393 112.672 102 113.262 102.398C113.852 102.795 113.852 103.795 113.282 104.648C113.192 104.779 113.092 104.903 112.982 105.018L117.217 113.96C117.892 113.51 118.635 113.398 119.17 113.753C119.341 113.878 119.483 114.039 119.586 114.224C119.689 114.41 119.75 114.616 119.765 114.828L122.66 113.853L125.19 113L126.015 112.73C126.119 112.419 126.264 112.124 126.445 111.85C127.247 110.643 128.56 110.1 129.377 110.65C130.195 111.2 130.205 112.588 129.425 113.785L134.25 120.373C135.302 119.51 136.54 119.243 137.397 119.813C138.565 120.59 138.582 122.618 137.437 124.338C137.39 124.408 137.337 124.463 137.29 124.528L140.5 128.918L140.53 128.96C140.694 129.208 140.753 129.511 140.694 129.802C140.635 130.093 140.463 130.349 140.215 130.513C139.967 130.677 139.665 130.736 139.373 130.677C139.082 130.618 138.827 130.445 138.662 130.198L135.812 125.895C134.91 126.418 133.95 126.518 133.247 126.05C132.132 125.3 132.077 123.43 133.072 121.763L128.455 114.793C127.772 115.255 127.02 115.373 126.48 115.015C126.18 114.802 125.975 114.48 125.91 114.118L125.565 114.213L122.992 114.915L119.697 115.805C119.595 116.2 119.426 116.574 119.197 116.913C118.395 118.118 117.082 118.663 116.265 118.113C115.447 117.563 115.435 116.15 116.237 114.943C116.355 114.765 116.487 114.598 116.632 114.443L112.6 105.333C112.115 105.665 111.577 105.75 111.192 105.493C110.612 105.108 110.602 104.098 111.172 103.25Z" fill="#002BFF" fill-opacity="0.25"/>
<path d="M141.849 103.73H148.099C148.385 103.73 148.665 103.646 148.904 103.49C149.143 103.334 149.332 103.112 149.447 102.85C149.481 102.771 149.5 102.686 149.502 102.6C149.501 102.43 149.433 102.266 149.312 102.146C149.191 102.025 149.028 101.958 148.857 101.958H142.214C142.527 102.48 142.369 103.213 141.849 103.73Z" fill="#002BFF" fill-opacity="0.25"/>
<path d="M137.809 103.09C137.81 103.26 137.878 103.423 137.999 103.543C138.119 103.663 138.282 103.73 138.452 103.73H141.849C142.369 103.213 142.527 102.48 142.214 101.953H139.214C138.929 101.952 138.65 102.035 138.41 102.191C138.171 102.347 137.982 102.569 137.867 102.83C137.83 102.912 137.811 103 137.809 103.09Z" fill="#002BFF"/>
<path d="M139.372 103.73C139.391 103.764 139.411 103.797 139.435 103.828C139.88 104.438 140.847 104.495 141.597 103.948C141.686 103.882 141.77 103.809 141.847 103.73C142.367 103.213 142.525 102.48 142.212 101.953C142.196 101.918 142.176 101.885 142.152 101.855C141.71 101.243 140.742 101.19 139.992 101.733C139.903 101.8 139.82 101.873 139.742 101.953C139.222 102.473 139.065 103.2 139.372 103.73Z" fill="white"/>
<path d="M136.25 107.013C136.252 107.183 136.32 107.346 136.441 107.465C136.562 107.585 136.725 107.653 136.895 107.653H143.453C143.135 107.123 143.293 106.403 143.813 105.875H137.645C137.359 105.875 137.079 105.959 136.84 106.115C136.6 106.271 136.411 106.493 136.295 106.755C136.264 106.837 136.249 106.925 136.25 107.013Z" fill="#002BFF"/>
<path d="M143.443 107.652H146.528C146.813 107.652 147.092 107.57 147.331 107.414C147.57 107.259 147.759 107.038 147.875 106.777C147.911 106.699 147.93 106.614 147.933 106.528C147.933 106.443 147.917 106.359 147.885 106.281C147.852 106.203 147.805 106.132 147.745 106.073C147.686 106.013 147.615 105.966 147.537 105.933C147.458 105.901 147.375 105.885 147.29 105.885H143.803C143.283 106.395 143.125 107.122 143.443 107.652Z" fill="#002BFF" fill-opacity="0.25"/>
<path d="M143.442 107.652C143.457 107.687 143.475 107.72 143.497 107.75C143.94 108.362 144.907 108.417 145.657 107.872C145.746 107.805 145.83 107.732 145.907 107.652C146.422 107.132 146.58 106.403 146.272 105.875C146.254 105.841 146.234 105.809 146.212 105.778C145.765 105.168 144.797 105.113 144.047 105.66C143.958 105.725 143.875 105.797 143.797 105.875C143.282 106.395 143.125 107.122 143.442 107.652Z" fill="white"/>
<path d="M141.25 111.547H145.175C145.461 111.547 145.74 111.464 145.98 111.308C146.219 111.153 146.409 110.931 146.525 110.67C146.559 110.591 146.578 110.506 146.58 110.42C146.58 110.249 146.512 110.084 146.391 109.963C146.27 109.842 146.106 109.773 145.935 109.772H141.622C141.932 110.3 141.772 111.027 141.25 111.547Z" fill="#002BFF"/>
<path d="M134.895 110.91C134.895 110.994 134.912 111.077 134.944 111.155C134.977 111.232 135.024 111.303 135.084 111.362C135.144 111.421 135.214 111.468 135.292 111.5C135.37 111.532 135.453 111.548 135.537 111.548H141.249C141.764 111.028 141.924 110.298 141.615 109.768H136.3C136.013 109.767 135.733 109.851 135.494 110.008C135.255 110.164 135.066 110.388 134.952 110.65C134.915 110.732 134.896 110.821 134.895 110.91Z" fill="#002BFF" fill-opacity="0.25"/>
<path d="M138.78 111.547C138.798 111.582 138.819 111.614 138.842 111.645C139.285 112.257 140.25 112.31 141.002 111.765C141.091 111.699 141.175 111.626 141.252 111.547C141.767 111.027 141.927 110.297 141.617 109.767C141.601 109.733 141.581 109.7 141.557 109.67C141.11 109.062 140.145 109.01 139.392 109.552C139.304 109.618 139.22 109.69 139.142 109.767C138.627 110.287 138.467 111.02 138.78 111.547Z" fill="white"/>
<path d="M115.878 129.918H119.805C120.091 129.917 120.37 129.834 120.609 129.678C120.848 129.523 121.037 129.301 121.153 129.04C121.187 128.961 121.206 128.876 121.208 128.79C121.208 128.619 121.14 128.455 121.019 128.334C120.898 128.213 120.734 128.145 120.563 128.145H116.25C116.553 128.67 116.393 129.398 115.878 129.918Z" fill="#002BFF"/>
<path d="M100.293 129.28C100.293 129.364 100.31 129.447 100.343 129.525C100.375 129.602 100.422 129.673 100.482 129.732C100.542 129.791 100.612 129.838 100.69 129.87C100.768 129.902 100.851 129.918 100.935 129.918H115.878C116.393 129.398 116.553 128.668 116.243 128.14H101.698C101.412 128.14 101.132 128.223 100.893 128.379C100.654 128.536 100.465 128.758 100.35 129.02C100.315 129.102 100.295 129.19 100.293 129.28Z" fill="#002BFF" fill-opacity="0.25"/>
<path d="M113.4 129.918C113.418 129.952 113.439 129.984 113.463 130.015C113.905 130.628 114.87 130.68 115.623 130.138C115.711 130.07 115.795 129.997 115.873 129.918C116.388 129.398 116.548 128.668 116.238 128.14C116.221 128.105 116.201 128.073 116.178 128.043C115.73 127.433 114.765 127.38 114.013 127.923C113.924 127.988 113.84 128.061 113.763 128.14C113.25 128.658 113.088 129.39 113.4 129.918Z" fill="white"/>
<path d="M17.0452 139.545C17.0452 139.545 8.79521 176.812 30.0178 184.597C51.2403 192.382 108.568 185.07 84.7428 158.18C60.9178 131.29 17.0452 139.545 17.0452 139.545Z" fill="black"/>
<path d="M120.02 56.75C122.904 56.1483 125.828 55.7583 128.77 55.5825C128.832 55.5825 128.885 55.5825 128.94 55.5825C130.872 55.455 134.257 55.4 136.19 55.38" stroke="black" stroke-width="4.05" stroke-miterlimit="10"/>
<path d="M105.723 62.9175C105.703 62.93 105.69 62.945 105.67 62.9575" stroke="black" stroke-width="4.05" stroke-miterlimit="10"/>
<path d="M138.613 47.25C137.138 48.025 135.443 47.5 134.793 46.18" stroke="black" stroke-width="4.05" stroke-miterlimit="10"/>
<path d="M130.05 28.4125C129.984 29.5595 130.278 30.6985 130.892 31.6695C131.506 32.6408 132.408 33.3953 133.473 33.8275C133.698 33.4143 134.02 33.0625 134.413 32.8025C136.07 31.73 135.775 34.595 140.275 33.84C146.513 32.7875 148.103 34.96 148.103 34.96C148.24 35.15 147.853 36.39 147.798 36.6175C147.548 37.95 147.298 39.275 147.07 40.6175C146.923 41.4308 146.775 42.239 146.625 43.0425C146.739 42.9325 146.859 42.8298 146.985 42.735C148.01 41.135 149.513 39.34 151.15 40.805C151.479 41.11 151.731 41.4888 151.885 41.91C152.635 43.9475 151.2 45.2575 149.523 46.0425C149.08 46.3103 148.61 46.529 148.12 46.695C148.203 47.21 148.545 49.2625 148.545 49.2675C148.58 49.4775 152.745 46.91 153.093 46.5975C153.72 45.7673 154.205 44.8378 154.525 43.8475C155.82 39.7625 155.6 34.4825 152.993 31.1225C152.345 30.29 152.778 29.81 152.965 29C152.974 28.9563 152.97 28.911 152.953 28.87C152.936 28.8288 152.907 28.7938 152.87 28.7693C152.833 28.7448 152.789 28.732 152.744 28.7325C152.7 28.7333 152.657 28.747 152.62 28.7725C151.215 29.655 148.673 28.7525 148.673 28.7525C140.423 23.7974 136.195 26.8625 134.173 27.0175C133.352 27.0738 132.538 26.842 131.87 26.3625C131.753 26.5945 131.574 26.79 131.354 26.9283C131.134 27.0665 130.88 27.1423 130.62 27.1475L130.54 27.5775C130.479 27.9043 130.306 28.1995 130.05 28.4125Z" fill="#002BFF"/>
<path d="M133.478 33.8375C132.413 33.4055 131.51 32.651 130.897 31.6797C130.283 30.7085 129.988 29.5695 130.055 28.4225C130.079 27.982 130.143 27.5445 130.245 27.115L130.318 27.13C130.416 27.1522 130.517 27.1597 130.618 27.1525C130.877 27.1475 131.131 27.0717 131.351 26.9335C131.572 26.7952 131.75 26.5995 131.868 26.3675C131.936 26.2385 131.985 26.0992 132.01 25.955L132.395 23.8625C132.395 23.8625 133.645 25.555 135.645 25.3975C137.645 25.24 141.873 22.175 150.145 27.1325C150.145 27.1325 152.13 27.865 153.535 26.9825C153.572 26.9572 153.615 26.9432 153.659 26.9427C153.704 26.9422 153.747 26.955 153.785 26.9795C153.822 27.004 153.851 27.039 153.868 27.08C153.885 27.1212 153.889 27.1665 153.88 27.21C153.693 28.0175 153.818 28.67 154.465 29.5025C157.073 32.8625 157.293 38.1425 155.998 42.2275C155.431 43.9205 154.424 45.432 153.08 46.6075C152.733 46.92 148.568 49.4875 148.533 49.2775C148.533 49.2775 148.19 47.22 148.108 46.705L148.088 46.5875L148.205 46.5525C148.651 46.4147 149.086 46.2477 149.51 46.0525C151.188 45.2675 152.63 43.9575 151.873 41.92C151.718 41.499 151.466 41.1202 151.138 40.815C149.5 39.35 147.998 41.145 146.973 42.745C146.774 43.0487 146.612 43.3742 146.488 43.715C146.528 43.495 146.568 43.28 146.61 43.06C146.76 42.255 146.908 41.4467 147.055 40.635C147.305 39.3 147.538 37.975 147.783 36.635C147.828 36.4075 148.225 35.1675 148.088 34.9775C148.088 34.9775 146.498 32.805 140.26 33.8575C135.76 34.6075 136.055 31.7475 134.398 32.82C134.005 33.08 133.683 33.432 133.458 33.845C133.388 33.9797 133.326 34.1182 133.273 34.26C133.264 34.2777 133.256 34.2962 133.25 34.315C133.138 34.625 133.035 34.9375 132.935 35.2425C132 38.215 131.383 41.425 131.713 44.5475C132.115 48.3325 134.873 52.7825 139.26 52.405C140.641 52.2432 141.987 51.8652 143.25 51.285" stroke="black" stroke-width="4.05" stroke-miterlimit="10"/>
<path d="M133.956 41.9047C134.385 41.8925 134.721 41.462 134.707 40.943C134.692 40.424 134.332 40.0132 133.903 40.0255C133.474 40.0375 133.138 40.468 133.152 40.987C133.167 41.506 133.527 41.9167 133.956 41.9047Z" fill="black"/>
<path d="M139.831 43.4827C140.26 43.4705 140.596 43.04 140.582 42.5212C140.567 42.0022 140.207 41.5912 139.778 41.6035C139.349 41.6157 139.013 42.0462 139.027 42.565C139.042 43.084 139.402 43.495 139.831 43.4827Z" fill="black"/>
<path d="M137.294 43.83C137.294 43.83 135.022 44.33 135.252 43.165C135.322 42.8 135.892 39.215 135.892 39.215C135.892 39.215 134.832 37.08 132.059 37.5775" stroke="black" stroke-width="4.05" stroke-miterlimit="10"/>
<path d="M138.316 38.895C138.316 38.895 141.918 38.2825 143.298 41.16" stroke="black" stroke-width="4.05" stroke-miterlimit="10"/>
<path d="M136.229 55.35C133.392 56.85 131.877 60.46 133.064 63.0725C135.044 67.425 140.257 68.705 144.564 67.4475C149.354 66.0475 152.874 61.6325 152.664 56.57" stroke="black" stroke-width="4.05" stroke-miterlimit="10"/>
<path d="M153.409 138.348C161.637 119.228 164.624 85.48 164.624 85.48V132.565C164.624 133.325 164.773 134.076 165.064 134.778C165.354 135.48 165.78 136.117 166.317 136.654C166.854 137.191 167.492 137.618 168.194 137.908C168.895 138.199 169.647 138.348 170.407 138.348H188.657C189.341 138.358 190.005 138.116 190.521 137.667C191.038 137.218 191.37 136.594 191.454 135.915C191.491 135.541 191.449 135.163 191.331 134.807C191.213 134.45 191.021 134.122 190.768 133.844C190.516 133.566 190.207 133.343 189.863 133.191C189.52 133.04 189.148 132.962 188.772 132.962H181.297C180.999 132.961 180.705 132.893 180.438 132.761C180.17 132.629 179.936 132.438 179.754 132.202C179.572 131.966 179.446 131.692 179.386 131.4C179.325 131.108 179.333 130.806 179.407 130.518C183.907 112.768 186.689 91.9325 180.832 73.495C179.622 69.69 177.014 66.3 173.934 63.68C170.399 60.66 166.042 59.275 161.577 58.25C158.632 57.575 155.661 57.0165 152.664 56.575C152.656 56.578 152.646 56.578 152.637 56.575C152.617 56.575 152.597 56.575 152.584 56.575H152.564H152.537H152.497" stroke="black" stroke-width="4.05" stroke-miterlimit="10"/>
<path d="M150.78 48.08L150.45 54.0525C150.418 54.6363 150.602 55.2113 150.965 55.669C151.328 56.1268 151.847 56.4358 152.422 56.5375H152.497C152.51 56.534 152.524 56.534 152.537 56.5375H152.55H152.585" stroke="black" stroke-width="4.05" stroke-miterlimit="10"/>
<path d="M152.637 56.565H152.585H152.565H152.55H152.537H152.497H152.422C151.847 56.4632 151.328 56.1542 150.965 55.6965C150.602 55.2385 150.418 54.6635 150.45 54.08L150.78 48.1075" stroke="black" stroke-width="4.05" stroke-miterlimit="10"/>
<path d="M136.702 52.0325C136.539 51.9675 136.702 58.7025 132.684 61.6275" stroke="black" stroke-width="4.05" stroke-miterlimit="10"/>
<path d="M82.915 138.35H70.045" stroke="black" stroke-width="4.05" stroke-miterlimit="10"/>
<path d="M208.647 138.35H102.952" stroke="black" stroke-width="4.05" stroke-miterlimit="10"/>
<path d="M45.6873 75.1175C45.8113 77.639 45.721 80.1665 45.4173 82.6725C45.0273 85.6175 42.3048 89.36 41.7148 92.2725C40.8723 96.4625 42.1473 100.792 43.8973 104.682C46.0123 109.385 49.3448 114.115 49.0198 119.5C48.8533 121.845 48.1553 124.122 46.979 126.158C45.8025 128.193 44.1785 129.935 42.2298 131.25C39.5603 133.036 36.5113 134.174 33.3248 134.575C32.8798 134.627 32.4273 134.67 31.9748 134.682C31.7248 134.682 31.4748 134.655 31.2248 134.635C22.7497 133.917 14.0572 127.452 14.0772 118.452C14.0772 112.702 18.4472 108.202 19.1847 102.622C19.6372 99.21 18.6372 95.665 19.5622 92.3525C21.0622 87.0625 26.8598 84.1775 29.3998 79.3075C31.2698 75.7125 31.5748 71.5175 33.0548 67.7475C35.1148 62.4975 38.4048 56.4975 42.9048 55.9975C44.2105 56.1455 45.4728 56.5572 46.6148 57.2075C49.4048 58.7075 50.1148 58.8025 50.6823 60.14C51.2623 61.5375 50.3973 63.03 48.9523 63.4775C46.5123 64.25 45.4598 69.2075 45.6873 75.1175Z" fill="#002BFF"/>
<path d="M48.1398 58.02C55.4648 55.8975 60.1198 59.02 63.4498 62.62C66.7798 66.22 66.6248 70.3075 66.6248 70.3075" stroke="black" stroke-width="4.05" stroke-miterlimit="10"/>
<path d="M70.8598 128.43C70.7493 134.153 70.0243 139.847 68.6973 145.415" stroke="black" stroke-width="4.05" stroke-miterlimit="10"/>
<path d="M89.0623 175.035C86.3798 179.65 80.0173 182.927 72.2323 184.967C58.4173 188.587 40.1273 188.305 30.0223 184.595C8.78729 176.812 17.0423 139.545 17.0423 139.545C17.0423 139.545 53.7698 132.632 78.2598 152.045C80.5995 153.894 82.7713 155.947 84.7498 158.178C87.4573 161.24 89.1198 164.042 89.9048 166.602C90.8673 169.792 90.4823 172.603 89.0623 175.035Z" stroke="black" stroke-width="4.05" stroke-miterlimit="10"/>
<path d="M74.9847 184.338C74.9847 184.338 62.1172 220.055 83.7347 229.178C105.352 238.3 4.34974 239.515 26.6447 229.178C48.9397 218.84 36.1247 186.52 36.1247 186.52" stroke="black" stroke-width="4.05" stroke-miterlimit="10"/>
<path d="M101.16 62.9575C100.892 62.14 101.002 59.2975 101.09 57.6925C101.107 57.3895 101.241 57.1047 101.464 56.899C101.687 56.6932 101.981 56.5822 102.285 56.59L127.967 56.815C128.4 56.819 128.814 56.9937 129.119 57.3012C129.424 57.609 129.595 58.0245 129.595 58.4575V77.73C129.595 77.9462 129.552 78.1605 129.469 78.3602C129.386 78.56 129.264 78.7415 129.111 78.894C128.958 79.0467 128.776 79.1675 128.576 79.2495C128.376 79.3317 128.161 79.3735 127.945 79.3725L102.917 79.28C102.555 79.265 102.212 79.1105 101.961 78.8487C101.709 78.5867 101.569 78.2377 101.57 77.875V76.405C103.35 77.235 106.715 77.49 106.715 77.49C107.912 77.4575 109.805 77.3125 110.842 76.7175C111.792 76.1725 112.992 75.39 113.155 74.205C113.217 73.7467 113.096 73.2822 112.817 72.913C112.539 72.5437 112.125 72.3 111.667 72.235C111.392 72.18 111.107 72.2 110.842 72.2925" stroke="black" stroke-width="4.05" stroke-miterlimit="10"/>
<path d="M126.225 116.365C126.213 116.709 126.097 117.041 125.892 117.317C125.305 118.04 124.142 117.897 123.352 117.675C120.03 116.73 118.035 120.33 116.78 122.755C113.61 128.885 108.855 134.58 102.922 138.35C102.537 138.6 102.145 138.835 101.747 139.065C95.9499 142.41 88.4375 141.788 82.83 138.315L90 120.702L90.71 121.27C95.04 124.687 100.37 122.77 104.06 119.397C105.084 118.464 105.988 117.407 106.75 116.25C108.02 114.297 109.107 112.19 110.845 110.602C113.25 108.405 116.77 107.975 119.81 108.905C122.85 109.835 126.5 112.825 126.225 116.365Z" fill="white"/>
<path d="M126.195 115.118C126.195 115.118 125.38 110.803 118.032 114.17" stroke="black" stroke-width="4.05" stroke-miterlimit="10"/>
<path d="M122.108 109.937C122.108 109.937 117.528 108.473 114.978 111.972" stroke="black" stroke-width="4.05" stroke-miterlimit="10"/>
<path d="M29.655 134.643C30.878 134.752 32.1088 134.731 33.3275 134.583C36.5133 134.177 39.561 133.036 42.23 131.25C44.1788 129.934 45.803 128.193 46.9793 126.158C48.1558 124.122 48.8535 121.845 49.02 119.5C49.345 114.113 46.02 109.383 43.8975 104.68C42.1475 100.788 40.8725 96.4575 41.7175 92.2725C42.305 89.3575 45.0225 85.6175 45.415 82.67C45.7203 80.164 45.8123 77.6365 45.69 75.115C45.4625 69.2025 46.5125 64.24 48.9525 63.485C50.3975 63.0375 51.265 61.5425 50.6825 60.1475C50.125 58.8075 49.4075 58.7275 46.615 57.21C39.335 53.25 34.2725 60.6325 31.4775 67.75C29.995 71.5225 29.695 75.7125 27.8225 79.3075C25.2825 84.18 19.4725 87.0575 17.9875 92.3575C17.06 95.6675 18.06 99.215 17.61 102.623C16.875 108.2 12.5125 112.698 12.5 118.453C12.48 127.45 21.1825 133.92 29.655 134.643Z" stroke="black" stroke-width="4.05" stroke-miterlimit="10"/>
<path d="M89.0625 175.035C88.435 179.5 87.5 184.623 86.47 189.75C83.55 204.283 79.835 218.903 79.835 218.903" stroke="black" stroke-width="4.05" stroke-miterlimit="10"/>
<path d="M89.8952 166.602C89.9077 166.057 89.9152 165.557 89.8952 165.082C89.6727 154.832 82.3027 152.382 79.1327 151.795C78.6597 151.702 78.1812 151.641 77.7002 151.612" stroke="black" stroke-width="4.05" stroke-miterlimit="10"/>
<path d="M80.935 214.47C81.343 214.22 81.8102 214.083 82.2887 214.074C82.767 214.065 83.239 214.184 83.6562 214.418C84.0735 214.652 84.4207 214.993 84.6622 215.406C84.9037 215.819 85.0307 216.289 85.03 216.767C85.03 216.802 85.03 216.845 85.03 216.895C84.9902 218.129 84.665 219.338 84.0797 220.426C83.4947 221.514 82.6657 222.451 81.6575 223.165L78.1825 225.637" stroke="black" stroke-width="4.05" stroke-miterlimit="10"/>
<path d="M41.46 95.5775C41.945 95.38 42.44 95.205 42.94 95.0425C43.9925 93.0975 43.83 88.84 43.73 87.2925L44.7825 84.92C47.6875 86.705 51.5325 86.035 55.1 84.7925C55.601 84.6175 56.0882 84.4052 56.5575 84.1575C58.8225 83.1175 61.9975 80.6575 60.5725 79.3875C59.1475 78.1175 59.2475 75.6725 60.16 74.1725C60.4375 73.7125 60.93 73.26 61.4425 73.4025C61.7875 73.4975 62.01 73.82 62.2075 74.1175C62.4575 74.49 62.7075 74.8475 62.9575 75.2125C63.045 75.335 63.1875 75.4625 63.3225 75.4075C63.3795 75.37 63.424 75.316 63.45 75.2525C63.89 74.3475 63.8075 73.05 63.8825 72.0575C63.97 70.875 64.0375 69.685 64.0725 68.4975C64.0925 67.8425 64.2275 67.14 64.93 66.91C65.0717 66.8555 65.2242 66.8337 65.3755 66.8467C65.527 66.8597 65.6735 66.907 65.8037 66.985C65.9342 67.0632 66.045 67.17 66.128 67.2972C66.211 67.4247 66.2637 67.5692 66.2825 67.72C66.7937 70.5932 66.8687 73.527 66.505 76.4225C66.16 79.455 65.5375 82.6725 63.5925 85.1175C62.4842 86.528 60.9995 87.5957 59.31 88.1975C57.675 88.765 57.7275 90.7375 57.7275 92.4675V95.34C62.755 96.36 67.4775 97.59 71.3825 101.09C73.965 103.451 76.395 105.973 78.6575 108.642C85.78 117 87.32 118.567 90.75 121.27C95.08 124.687 100.412 122.77 104.1 119.397C105.122 118.464 106.024 117.407 106.785 116.25C108.055 114.297 109.142 112.19 110.877 110.602C113.285 108.405 116.805 107.975 119.845 108.905C122.885 109.835 126.54 112.825 126.25 116.365C126.238 116.708 126.123 117.04 125.92 117.317C125.332 118.04 124.17 117.897 123.38 117.675C120.055 116.73 118.062 120.33 116.805 122.755C113.637 128.885 108.88 134.58 102.947 138.35C102.562 138.6 102.172 138.835 101.772 139.065C95.145 142.89 86.26 141.525 80.56 136.652L66.81 124.98" stroke="black" stroke-width="4.05" stroke-miterlimit="10"/>
<path d="M42.9406 95.0425C42.9406 95.0425 49.5081 93.0125 57.7281 95.3475" stroke="black" stroke-width="4.05" stroke-miterlimit="10"/>
<path d="M101.57 76.405C101.57 76.405 101.62 84.905 103.648 88.1775" stroke="black" stroke-width="4.05" stroke-miterlimit="10"/>
<path d="M108.233 37.5C106.673 40.1625 106.745 42.0525 107.15 45.12C107.184 45.3812 107.143 45.6465 107.032 45.8855C106.921 46.1245 106.745 46.3272 106.524 46.4705C106.303 46.6137 106.046 46.6915 105.782 46.695C105.519 46.6982 105.26 46.6272 105.035 46.49C96.0355 41.31 87.613 45.4075 76.868 42.87C72.923 41.9425 68.0055 40.025 64.633 36.9375C63.5142 35.2757 62.917 33.318 62.918 31.315C62.918 22.9174 74.3905 16.1074 88.5355 16.1074C97.603 16.1074 105.568 18.9049 110.123 23.1199C110.123 23.1199 110.123 23.1199 110.135 23.1349C111.278 24.7779 111.902 26.7262 111.925 28.7275C111.925 31.75 109.685 35 108.233 37.5Z" fill="#002BFF" fill-opacity="0.25"/>
<path d="M111.886 28.7325V28.945C111.833 31.8875 110.361 34.6225 108.613 36.99C107.443 38.575 106.056 40.3325 106.386 42.275C106.531 43.13 107.008 43.9075 107.136 44.775C107.263 45.6425 106.798 46.705 105.931 46.75C105.381 46.7775 104.911 46.385 104.476 46.0475C101.893 44.0475 98.538 43.2975 95.2755 43.1675C92.013 43.0375 88.7555 43.465 85.4905 43.5575C80.7855 43.6925 76.0055 43.105 71.658 41.3075C67.7505 39.6775 64.188 37.0275 61.843 33.5C59.5405 30.0225 60.903 24.9775 63.358 21.955C65.663 19.12 68.998 17.305 72.4205 16.0275C81.623 12.59 92.128 12.6725 101.206 16.435C103.901 17.54 106.501 19 108.526 21.105C110.501 23.1575 111.868 25.8925 111.886 28.7325Z" stroke="black" stroke-width="4.05" stroke-miterlimit="10"/>
<path d="M74.12 32.0775C76.0722 32.0775 77.655 30.495 77.655 28.5425C77.655 26.5903 76.0722 25.0075 74.12 25.0075C72.1677 25.0075 70.585 26.5903 70.585 28.5425C70.585 30.495 72.1677 32.0775 74.12 32.0775Z" fill="white"/>
<path d="M85.5498 32.0775C87.502 32.0775 89.0848 30.495 89.0848 28.5425C89.0848 26.5903 87.502 25.0075 85.5498 25.0075C83.5973 25.0075 82.0148 26.5903 82.0148 28.5425C82.0148 30.495 83.5973 32.0775 85.5498 32.0775Z" fill="white"/>
<path d="M97.203 32.0775C99.1552 32.0775 100.738 30.495 100.738 28.5425C100.738 26.5903 99.1552 25.0075 97.203 25.0075C95.2507 25.0075 93.668 26.5903 93.668 28.5425C93.668 30.495 95.2507 32.0775 97.203 32.0775Z" fill="white"/>
<g opacity="0.54">
<path opacity="0.54" d="M165.129 176.75L163.692 197.5C163.035 198.753 162.213 199.912 161.249 200.948C161.144 200.91 161.039 200.87 160.937 200.823C160.744 200.758 160.554 200.68 160.374 200.605C157.462 199.328 155.249 196.948 154.604 194.25C154.022 191.888 154.547 189.335 153.422 187.115C152.049 184.38 148.317 182.665 147.859 179.58C147.429 176.693 150.029 174.045 149.609 171.215C149.109 168.015 145.197 166.118 144.464 162.993C144.007 161.05 144.417 158.82 144.244 156.82C144.054 154.583 143.679 152.365 143.122 150.19C148.914 149.77 154.809 152.963 156.687 157.535C158.219 161.285 157.297 165.653 159.687 169.063C160.992 170.91 163.164 172.293 164.289 174.225C164.637 174.828 164.889 175.481 165.039 176.16C165.039 176.208 165.039 176.255 165.057 176.293C165.057 176.37 165.077 176.425 165.087 176.483C165.112 176.655 165.129 176.75 165.129 176.75Z" fill="#002BFF"/>
<path opacity="0.54" d="M165.14 176.733C165.14 176.733 165.122 176.648 165.102 176.483C165.12 176.548 165.132 176.615 165.14 176.683C165.144 176.69 165.145 176.699 165.145 176.708C165.145 176.716 165.144 176.725 165.14 176.733Z" fill="#002BFF"/>
</g>
<path d="M184.278 168.635C183.528 171.33 179.42 172.967 178.925 175.73C178.488 178.18 181.193 180.465 180.745 182.952C180.268 185.62 176.38 187.095 174.953 189.452C173.79 191.367 174.333 193.57 173.733 195.607C173.038 197.922 170.733 199.99 167.693 201.085C167.503 201.152 167.323 201.217 167.13 201.275C167.025 201.305 166.91 201.342 166.805 201.37C165.805 200.542 164.643 199.085 163.7 197.512L165.13 176.75C166.245 175.805 167.52 174.94 168.408 173.89C169.37 172.757 169.818 171.52 170.103 170.222H170.133V170.08C170.55 168.032 170.588 165.887 171.55 163.945C173.503 159.992 179.63 157.237 185.66 157.6C185.091 159.467 184.702 161.384 184.498 163.325C184.325 165.042 184.75 166.967 184.278 168.635Z" fill="#002BFF"/>
<path d="M170.142 170.062V170.205H170.112L170.142 170.062Z" fill="#002BFF"/>
<path d="M170.142 170.062L170.112 170.205C169.827 171.502 169.38 172.74 168.417 173.872C167.53 174.922 166.255 175.787 165.14 176.732C165.144 176.719 165.144 176.705 165.14 176.692C165.132 176.625 165.119 176.558 165.102 176.492C165.102 176.435 165.082 176.38 165.072 176.302C165.072 176.265 165.072 176.217 165.055 176.17C164.905 175.49 164.652 174.838 164.305 174.235C163.18 172.302 161.007 170.92 159.702 169.072C159.702 169.072 160.292 159.335 165.275 156.372C170 153.572 170.142 168.442 170.142 170.062Z" fill="#002BFF"/>
<path d="M170.142 170.062V170.205H170.112L170.142 170.062Z" fill="#002BFF"/>
<path d="M165.13 176.693V176.75C165.13 176.75 165.113 176.665 165.093 176.5C165.11 176.563 165.122 176.628 165.13 176.693Z" fill="#002BFF"/>
<path d="M164.685 176.75C165.795 175.805 167.085 174.928 167.975 173.88C170.475 170.933 169.51 167.165 171.112 163.933C173.062 159.985 179.195 157.233 185.222 157.593C184.65 159.459 184.26 161.376 184.057 163.318C183.877 165.048 184.307 166.97 183.835 168.645C183.067 171.34 178.975 172.975 178.477 175.738C178.035 178.185 180.747 180.47 180.3 182.955C179.822 185.625 175.937 187.1 174.507 189.455C173.34 191.373 173.887 193.57 173.282 195.613C172.55 198.075 170 200.25 166.677 201.277C166.572 201.312 166.457 201.35 166.35 201.378C165.35 200.55 164.187 199.093 163.242 197.518" stroke="black" stroke-width="4.05" stroke-miterlimit="10"/>
<path d="M181.542 160.685C172.555 170.357 168.327 190.75 166.682 201.28C166.547 202.167 166.432 202.98 166.322 203.712" stroke="black" stroke-width="4.05" stroke-miterlimit="10"/>
<path d="M182.372 209.643L178.25 234.04C178.152 234.708 177.82 235.32 177.314 235.767C176.808 236.214 176.16 236.468 175.485 236.483H153.865C153.183 236.467 152.529 236.208 152.021 235.753C151.513 235.298 151.184 234.676 151.095 234L147.282 209.64L182.372 209.643Z" stroke="black" stroke-width="4.05" stroke-miterlimit="10"/>
<path d="M186.3 206.918C186.263 207.641 185.954 208.324 185.434 208.829C184.915 209.335 184.224 209.625 183.5 209.643H146.222C145.506 209.625 144.822 209.341 144.305 208.845C143.787 208.349 143.474 207.678 143.427 206.963C143.27 205.213 144.565 203.713 146.222 203.713H183.5C185.142 203.715 186.432 205.193 186.3 206.918Z" stroke="black" stroke-width="4.05" stroke-miterlimit="10"/>
<path d="M160.807 200.943C162.407 199.355 164.367 195.815 165.235 192.925C165.95 190.543 164.692 188.09 164.402 185.645C163.952 181.818 165.852 177.703 163.85 174.233C162.732 172.298 160.56 170.923 159.255 169.07C156.852 165.658 157.775 161.293 156.24 157.55C154.362 152.973 148.47 149.78 142.68 150.205C143.233 152.381 143.608 154.598 143.802 156.835C143.975 158.835 143.552 161.065 144.017 163.005C144.75 166.13 148.68 168.023 149.162 171.225C149.587 174.055 146.985 176.705 147.412 179.588C147.872 182.678 151.6 184.385 152.977 187.125C154.097 189.348 153.572 191.898 154.152 194.258C154.88 197.208 157.457 199.8 160.807 200.943Z" stroke="black" stroke-width="4.05" stroke-miterlimit="10"/>
<path d="M146.215 153.79C154.842 165 158.902 188.622 160.5 200.817C160.635 201.875 160.75 202.845 160.852 203.712" stroke="black" stroke-width="4.05" stroke-miterlimit="10"/>
<path d="M159.25 169.07C159.25 169.07 159.842 159.333 164.822 156.373C169.802 153.413 169.697 170 169.697 170" stroke="black" stroke-width="4.05" stroke-miterlimit="10"/>
<path d="M164.685 176.75C164.685 176.75 163.668 171.18 165.453 165.703" stroke="black" stroke-width="4.05" stroke-miterlimit="10"/>
</svg>
