<svg width="250" height="250" viewBox="0 0 250 250" fill="none" xmlns="http://www.w3.org/2000/svg">
<path d="M44.3027 114.362C52.5302 102.862 64.8602 97.65 64.8602 97.65C65.2627 97.4825 63.5477 81.7275 63.5127 80.61C62.9927 62.205 66.0452 43.055 79.8802 29.765C97.1752 13.1624 128.555 9.72243 148.395 23.7099C148.145 23.5249 154.923 18.1824 155.495 17.8399C159.198 15.6052 163.376 14.2766 167.69 13.9624C185.05 12.7124 200.97 26.3525 207.483 42.8525C213.995 59.3525 212.5 96.9475 200.553 107.79" stroke="#002BFF" stroke-opacity="0.25" stroke-width="5.05" stroke-miterlimit="10"/>
<path d="M36.8848 134.313C37.3125 129.783 38.477 125.354 40.3323 121.2C40.509 120.805 40.694 120.418 40.8873 120.04" stroke="#002BFF" stroke-opacity="0.25" stroke-width="5.05" stroke-miterlimit="10"/>
<path d="M58.34 182.173C56.34 180.355 54.4875 178.505 52.79 176.645" stroke="#002BFF" stroke-opacity="0.25" stroke-width="5.05" stroke-miterlimit="10"/>
<path d="M225 128.12C225.015 129.37 225 130.645 224.94 131.922C224.585 139.825 222.892 147.993 218.662 154.647C217.892 155.875 217.033 157.045 216.092 158.147C207.092 156.96 205.75 147.78 195.342 142.59C182.875 136.357 162.46 138.59 162.46 138.59L172.517 129.312C171.98 101.372 151.467 103.087 151.467 103.087L150.425 105.64C151.217 103.328 152.017 101.172 152.827 99.1725L152.872 99.0675C162.372 75.4725 172.215 72.5475 179.872 69.14C181.702 68.7055 183.575 68.4822 185.455 68.475C205.032 68.37 216.522 88.3075 221.547 104.357C222.797 108.357 224.72 116.912 224.977 126.532C224.982 127.047 225 127.585 225 128.12Z" fill="black"/>
<path d="M236 232.84C234.48 234.932 231.972 236.072 229.387 236.072H199.688C198.546 236.089 197.414 235.866 196.364 235.419C195.314 234.971 194.369 234.309 193.59 233.475C193.575 233.475 193.59 233.475 193.59 233.475C193.484 233.368 193.386 233.254 193.295 233.135C192.364 231.982 191.782 230.587 191.617 229.115C191.467 227.762 192.473 226.56 193.833 226.615C194.348 226.635 194.839 226.841 195.214 227.195C195.589 227.549 195.823 228.026 195.872 228.54C195.872 228.647 195.895 228.752 195.91 228.857C196.02 229.467 196.288 230.038 196.688 230.512C197.041 230.93 197.484 231.262 197.984 231.483C198.484 231.704 199.028 231.809 199.575 231.79H229.515C230.051 231.799 230.583 231.692 231.073 231.476C231.564 231.26 232.002 230.941 232.357 230.54C232.758 230.076 233.032 229.516 233.151 228.915C233.27 228.313 233.231 227.691 233.038 227.11L219.665 187.347C219.556 187.042 219.426 186.745 219.277 186.457C218.492 184.799 217.248 183.401 215.693 182.429C214.137 181.456 212.334 180.951 210.5 180.972C204.87 181.04 197.723 181.055 197.05 181.055C182.068 181 175.25 181 171.5 181.1C171.757 180.178 172.223 179.328 172.86 178.615C172.86 178.615 172.875 178.6 172.875 178.592C173.789 177.618 175.041 177.028 176.375 176.945C181.93 176.49 187.43 175.66 192.773 174.21C202.2 171.655 211.193 167.272 217.44 160.225C220.481 156.813 222.78 152.807 224.19 148.46C225.285 145.008 225.974 141.441 226.245 137.83C226.342 136.69 226.402 135.541 226.425 134.385V134.333C226.425 134.068 226.44 133.795 226.44 133.53C226.474 131.882 226.399 130.235 226.215 128.598C227.847 128.61 229.411 129.257 230.575 130.402C230.677 130.672 230.753 130.951 230.8 131.235C230.845 131.504 230.868 131.777 230.867 132.05V164.387C230.87 166.596 230.434 168.783 229.585 170.822C228.736 172.861 227.49 174.711 225.92 176.265C223.32 178.84 222.58 182.747 223.812 186.185L237.102 225.73C237.504 226.916 237.613 228.182 237.421 229.42C237.23 230.657 236.742 231.831 236 232.84Z" fill="#002BFF"/>
<path d="M52.793 231.842V141.185H58.3405V231.88L52.793 231.842Z" fill="black"/>
<path d="M162.463 138.578C166.436 138.155 171.031 137.655 175.443 137.755" stroke="black" stroke-width="5.05" stroke-miterlimit="10"/>
<path d="M140.823 142.583C133.788 144.358 126.943 146.92 121.103 151.18C111.303 158.32 106.823 171.64 110.828 183.18C110.828 183.195 126.578 228.628 126.578 228.628H122.433C121.539 228.627 120.655 228.804 119.83 229.147C119.006 229.49 118.257 229.994 117.628 230.628C116.395 231.853 115.788 233.895 115.788 235.77H153.095L138.918 189.395C138.564 188.252 138.485 187.042 138.686 185.862C138.887 184.683 139.363 183.567 140.075 182.605C140.787 181.644 141.716 180.864 142.785 180.328C143.855 179.792 145.036 179.515 146.233 179.52C154.31 179.748 161.813 180.058 169.983 179.703" stroke="black" stroke-width="5.05" stroke-miterlimit="10"/>
<path d="M225.058 132.3V132.25C224.695 122.5 224.205 112.88 221.538 104.35C216.513 88.3 205.023 68.3625 185.445 68.4675C183.565 68.4748 181.692 68.698 179.863 69.1325C166.958 72.2 157.995 85.4225 152.863 99.06L152.818 99.165C152.328 100.473 151.874 101.778 151.458 103.08C151.175 103.956 150.827 104.809 150.415 105.633C148.843 108.801 146.351 111.421 143.265 113.149C140.179 114.878 136.643 115.634 133.12 115.32C109.42 113.165 78.1853 111.935 68.3478 128.588" stroke="black" stroke-width="5.05" stroke-miterlimit="10"/>
<path d="M186.275 114.165C182.825 118.33 179.192 122.353 175.437 126.243C167.75 134.213 161.117 142.678 149.187 143.243C139.67 143.7 130.61 140.048 121.61 137.515C111.982 134.808 107.11 132.643 98.1373 129.908C95.553 129.123 92.8723 128.702 90.1723 128.658L81.1398 128.728" stroke="black" stroke-width="5.05" stroke-miterlimit="10"/>
<path d="M151.045 229.213C151.905 228.827 152.837 228.629 153.78 228.633H157.935C157.935 228.633 149.25 211.75 142.305 200.513" stroke="black" stroke-width="5.05" stroke-miterlimit="10"/>
<path d="M156.75 179.74L185.8 236.072H152.94H146.98" stroke="black" stroke-width="5.05" stroke-miterlimit="10"/>
<path d="M236 232.84C234.48 234.933 231.973 236.073 229.388 236.073H199.688C197.225 236.073 194.823 235.053 193.288 233.128C192.357 231.975 191.775 230.58 191.61 229.108C191.46 227.755 192.465 226.553 193.825 226.608C194.34 226.627 194.831 226.834 195.206 227.187C195.581 227.541 195.815 228.019 195.865 228.533C195.926 229.259 196.211 229.948 196.68 230.505C197.039 230.916 197.483 231.244 197.982 231.464C198.481 231.685 199.022 231.794 199.568 231.783H229.515C230.051 231.792 230.583 231.685 231.073 231.469C231.564 231.253 232.002 230.934 232.358 230.533C232.758 230.069 233.032 229.509 233.151 228.907C233.27 228.306 233.231 227.684 233.038 227.103L219.665 187.348C218.988 185.465 217.742 183.84 216.1 182.698C214.457 181.556 212.5 180.953 210.5 180.973C204.87 181.04 197.723 181.055 197.05 181.055C180.368 181.003 173.8 181.003 170.32 181.13C170.266 181.13 170.212 181.119 170.162 181.098C170.112 181.077 170.067 181.046 170.029 181.007C169.991 180.969 169.961 180.923 169.941 180.873C169.92 180.823 169.91 180.769 169.91 180.715C169.905 179.172 170.471 177.681 171.5 176.53C171.504 176.527 171.508 176.523 171.51 176.519C171.513 176.515 171.514 176.51 171.515 176.505C172.431 175.533 173.682 174.945 175.015 174.86C180.57 174.405 186.07 173.575 191.413 172.125C200.84 169.57 209.833 165.188 216.08 158.14C219.121 154.729 221.42 150.722 222.83 146.375C223.922 142.925 224.609 139.359 224.878 135.75C224.976 134.607 225.036 133.458 225.058 132.305V132.25C225.058 131.988 225.073 131.715 225.073 131.45C225.107 129.803 225.031 128.155 224.848 126.518C227.568 126.503 230.31 128.48 230.785 131.24C230.83 131.509 230.853 131.782 230.853 132.055V164.388C230.855 166.596 230.419 168.784 229.57 170.822C228.721 172.861 227.475 174.711 225.905 176.265C223.305 178.84 222.565 182.748 223.798 186.185L237.088 225.73C237.491 226.915 237.603 228.18 237.414 229.418C237.225 230.656 236.74 231.83 236 232.84Z" stroke="black" stroke-width="5.05" stroke-miterlimit="10"/>
<path d="M93.31 134.315H15.9325C14.0368 134.315 12.5 135.852 12.5 137.747V137.75C12.5 139.646 14.0368 141.182 15.9325 141.182H93.31C95.2057 141.182 96.7425 139.646 96.7425 137.75V137.747C96.7425 135.852 95.2057 134.315 93.31 134.315Z" stroke="black" stroke-width="5.05" stroke-miterlimit="10"/>
<path d="M71.3975 232.273H40.11C39.0483 232.273 38.1875 233.133 38.1875 234.195C38.1875 235.257 39.0483 236.118 40.11 236.118H71.3975C72.4592 236.118 73.32 235.257 73.32 234.195C73.32 233.133 72.4592 232.273 71.3975 232.273Z" stroke="black" stroke-width="5.05" stroke-miterlimit="10"/>
<path d="M48.4647 131.232V131.577C48.5147 133.95 50.7472 134.312 52.6722 134.327L89.8872 134.302C91.5172 134.302 92.8622 133.052 92.8647 131.517V131.452C92.8347 129.952 91.5247 128.73 89.9147 128.727C89.9147 128.727 69.0947 128.652 52.9697 128.605C52.6797 129.45 51.9447 130.105 51.0272 130.64C50.238 131.054 49.3557 131.258 48.4647 131.232Z" stroke="black" stroke-width="5.05" stroke-miterlimit="10"/>
<path d="M28 97.8075C28.0078 98.2025 28.1208 98.5883 28.3275 98.925L45.5775 127.898C45.8008 128.246 46.0935 128.544 46.4378 128.774C46.782 129.004 47.17 129.16 47.5775 129.233C48.2668 129.368 48.981 129.291 49.625 129.01C50.6825 128.54 51.2925 127.593 51.2725 126.633C51.2688 126.512 51.256 126.391 51.235 126.273C51.1818 126.008 51.0838 125.754 50.945 125.523L33.695 96.55C32.945 95.2825 31.11 94.785 29.635 95.4375C28.5825 95.8975 27.9725 96.845 28 97.8075Z" stroke="black" stroke-width="5.05" stroke-miterlimit="10"/>
<path d="M74.6445 128.727C74.6445 128.727 76.722 126.75 81.4995 123.61" stroke="black" stroke-width="5.05" stroke-miterlimit="10"/>
<path d="M91.5847 96.2275L84.0122 104.625C83.485 105.21 82.753 105.57 81.9677 105.631C81.1822 105.692 80.4035 105.449 79.7922 104.953C79.4545 104.678 79.179 104.336 78.9835 103.947C78.788 103.559 78.677 103.133 78.6582 102.699C78.6392 102.264 78.7127 101.831 78.8737 101.427C79.0347 101.023 79.2797 100.657 79.5922 100.355L80.9772 99.015C81.0297 98.94 81.0897 98.8725 81.1497 98.8025L82.1497 97.7L90.7497 88.355C91.7935 87.2078 93.108 86.3405 94.573 85.8323C96.0382 85.3238 97.6075 85.1908 99.1372 85.445L99.2647 85.4675" stroke="black" stroke-width="5.05" stroke-miterlimit="10"/>
<path d="M102.25 98.5H94.6748C93.8128 98.5 92.9863 98.1575 92.3768 97.548C91.7673 96.9385 91.4248 96.112 91.4248 95.25C91.4248 94.388 91.7673 93.5615 92.3768 92.952C92.9863 92.3425 93.8128 92 94.6748 92H105.425" stroke="black" stroke-width="5.05" stroke-miterlimit="10"/>
<path d="M96.4427 98.5C96.3377 99.8275 95.8302 100.81 95.0827 101.5C93.1577 103.25 89.6277 103.058 87.1727 101.855" stroke="black" stroke-width="5.05" stroke-miterlimit="10"/>
<path d="M82.1625 97.695C79.985 95.0725 80.4325 91.5075 82.125 88.75C89.1125 77.34 102.433 84.3675 111.19 89.285C116.403 92.2263 121.387 95.5575 126.098 99.25C130.268 102.5 134.128 106.39 139.138 108.345C142.138 109.518 145.68 109.798 148.665 108.445" stroke="black" stroke-width="5.05" stroke-miterlimit="10"/>
<path d="M95.082 101.48C100.366 105.38 105.412 109.594 110.192 114.098" stroke="black" stroke-width="5.05" stroke-miterlimit="10"/>
<path d="M159.378 40.145C160.643 41.3 162.585 41.3625 164.193 41.2075C166.248 41.02 168.283 40.5225 170.295 40.1025L171.518 40.04H171.535C171.77 40.0425 172.001 40.0908 172.217 40.1828C172.433 40.2745 172.628 40.408 172.792 40.5753C172.956 40.7428 173.086 40.9408 173.174 41.1583C173.261 41.3755 173.305 41.6083 173.303 41.8425C173.331 44.481 173.067 47.1145 172.518 49.695L174.86 50.9625C175.163 50.1175 174.823 48.9 175.54 48.8075C176 47.95 176.685 47.3925 177.76 48.03C179.865 49.28 180.695 52.9525 178.668 54.635L179.968 57.065C180.421 57.917 181.156 58.585 182.047 58.9553C182.938 59.3255 183.929 59.375 184.853 59.095L183.525 56.16C186.64 56.7125 188.82 52.825 187.87 50.4525C187.223 48.8225 187.255 47.555 188.12 45.97C188.178 45.8625 187.59 45.72 187.64 45.61C187.67 44.4475 187.348 43.2025 186.788 42.61C185.803 41.55 183.82 41.36 184.225 39.75C184.405 39.0495 184.472 38.3245 184.423 37.6025C184.317 36.6588 184.01 35.7485 183.524 34.9333C183.037 34.1178 182.381 33.416 181.6 32.875C179.96 31.7975 178.125 32.775 176.373 32.7475C174.245 32.725 172.72 30.92 170.49 30.8925C169.38 30.875 168.49 31.3075 167.54 31.845C166.745 32.3025 165.963 32.78 165.203 33.2975C164.443 33.815 163.768 34.2625 162.86 34.265C161.678 34.28 160.535 33.53 159.345 33.88C158.744 34.042 158.215 34.4033 157.845 34.905C157.468 36.75 158.15 39.0325 159.378 40.145Z" fill="#002BFF"/>
<path d="M174.87 50.6875C175.023 50.0362 175.247 49.404 175.54 48.8025C176 47.945 176.687 47.3875 177.76 48.025C179.865 49.275 180.695 52.9475 178.667 54.63L179.967 57.06C180.421 57.9117 181.155 58.58 182.046 58.9502C182.937 59.3205 183.929 59.3697 184.852 59.09" stroke="black" stroke-width="5.05" stroke-linecap="round" stroke-linejoin="round"/>
<path d="M183.526 56.155L184.848 59.095C185.181 59.7975 186.133 61.9575 187.131 64.2025C187.841 65.81 188.581 67.465 189.131 68.6825" stroke="black" stroke-width="5.05" stroke-linecap="round" stroke-linejoin="round"/>
<path d="M162.103 45.5975C162.103 45.5975 166 44.6275 167.703 47.5825" stroke="black" stroke-width="5.05" stroke-miterlimit="10"/>
<path d="M163.25 54.42C162.2 54.7075 160.788 54.965 159.978 54.05L161.743 50.335C162.171 49.424 162.277 48.3942 162.043 47.415C161.658 45.7675 160.695 43.265 161.728 41.0925" stroke="black" stroke-width="5.05" stroke-miterlimit="10"/>
<path d="M165.872 49.441C166.168 48.9503 165.94 48.2705 165.363 47.9228C164.786 47.575 164.078 47.6908 163.783 48.1815C163.487 48.6723 163.715 49.352 164.292 49.6998C164.869 50.0478 165.576 49.9318 165.872 49.441Z" fill="black"/>
<path d="M171.56 72.83L170.635 62.565" stroke="black" stroke-width="5.05" stroke-miterlimit="10"/>
<path d="M174.86 50.9575C174.86 50.8675 174.86 50.775 174.86 50.685C174.865 50.5885 174.865 50.4915 174.86 50.395" stroke="black" stroke-width="5.05" stroke-linecap="round" stroke-linejoin="round"/>
<path d="M174.862 50.96L174.057 50.5275L172.517 49.69" stroke="black" stroke-width="5.05" stroke-linecap="round" stroke-linejoin="round"/>
<path d="M168.417 54.685C168.417 54.685 168.34 57.285 165.367 58.355" stroke="black" stroke-width="5.05" stroke-miterlimit="10"/>
<path d="M183.525 56.155C186.64 56.7075 188.82 52.82 187.87 50.4475C187.222 48.8175 187.255 47.55 188.12 45.965C188.177 45.8575 188.225 45.7525 188.275 45.6475C188.917 44.23 188.69 42.825 187.68 41.62C186.722 40.48 185.28 40.08 185.695 38.4175C185.881 37.6958 185.95 36.9488 185.9 36.205C185.792 35.2343 185.477 34.298 184.977 33.4593C184.477 32.6205 183.802 31.8988 183 31.3425C181.315 30.225 179.417 31.2375 177.602 31.21C175.417 31.1775 173.84 29.3175 171.547 29.29C170.4 29.29 169.475 29.7175 168.5 30.2725C167.68 30.745 166.867 31.2425 166.092 31.7725C165.317 32.3025 164.592 32.7725 163.672 32.7725C162.452 32.7725 161.275 32.0225 160.055 32.3725C158.835 32.7225 158.11 33.7325 157.87 34.9025C157.48 36.7375 158.162 39.03 159.39 40.1525C160.655 41.3075 162.597 41.37 164.205 41.215C166.26 41.0275 168.295 40.53 170.307 40.11L171.53 40.0475H171.547C171.782 40.0498 172.013 40.0983 172.229 40.19C172.445 40.282 172.64 40.4153 172.804 40.5828C172.968 40.75 173.098 40.9483 173.186 41.1655C173.273 41.383 173.317 41.6155 173.315 41.85C173.343 44.4885 173.079 47.1218 172.53 49.7025" stroke="black" stroke-width="5.05" stroke-miterlimit="10"/>
<path d="M175.333 59C175.333 59 170.688 65.17 166.56 63.7875C162.433 62.405 162.223 54.7675 162.223 54.7675" stroke="black" stroke-width="5.05" stroke-linecap="round" stroke-linejoin="round"/>
<path d="M52.793 231.842V141.185H58.3405V231.88" stroke="black" stroke-width="5.05" stroke-miterlimit="10"/>
<path d="M57.8975 88.4325C62.843 88.4325 66.8525 84.4232 66.8525 79.4775C66.8525 74.5317 62.843 70.5225 57.8975 70.5225C52.9518 70.5225 48.9425 74.5317 48.9425 79.4775C48.9425 84.4232 52.9518 88.4325 57.8975 88.4325Z" fill="#002BFF"/>
<path d="M54.3947 81.7875C54.1327 81.6085 53.9 81.39 53.7047 81.14C53.359 80.712 53.1822 80.1722 53.2075 79.6227C53.2327 79.0732 53.4585 78.552 53.8422 78.1575C54.0925 77.9 54.399 77.7037 54.7377 77.5845C55.0765 77.4652 55.4382 77.426 55.7947 77.47C55.7157 76.9742 55.8002 76.466 56.0357 76.0225C56.271 75.579 56.6442 75.224 57.0992 75.0115C57.554 74.799 58.0657 74.74 58.5569 74.844C59.0482 74.948 59.4925 75.209 59.8222 75.5875C60.5197 76.3775 60.8472 77.5525 60.9697 78.5875C61.0329 79.1277 61.0415 79.6732 60.9947 80.215C60.9722 80.4875 60.8747 82.06 60.6197 82.16C58.9347 82.805 56.0622 82.945 54.3947 81.7875Z" fill="white"/>
<path d="M121.08 86.32C123.731 86.32 125.88 84.171 125.88 81.52C125.88 78.869 123.731 76.72 121.08 76.72C118.429 76.72 116.28 78.869 116.28 81.52C116.28 84.171 118.429 86.32 121.08 86.32Z" fill="#002BFF"/>
<path d="M120.751 79.295C120.897 79.2067 121.056 79.1435 121.223 79.1075C121.51 79.0385 121.812 79.0767 122.072 79.2147C122.333 79.353 122.534 79.5815 122.638 79.8575C122.706 80.0377 122.731 80.2315 122.711 80.4232C122.692 80.6147 122.628 80.7995 122.526 80.9625C122.778 81.0427 122.999 81.2015 123.156 81.4157C123.312 81.63 123.397 81.8882 123.397 82.1537C123.397 82.419 123.312 82.6775 123.156 82.8917C122.999 83.1057 122.778 83.2645 122.526 83.345C121.953 83.4702 121.356 83.4267 120.808 83.22C120.532 83.1267 120.265 83.0062 120.013 82.86C119.886 82.7875 119.143 82.3825 119.156 82.235C119.228 81.265 119.816 79.84 120.751 79.295Z" fill="white"/>
<path d="M83.863 76.045C84.401 76.494 85.0013 76.862 85.6455 77.1375C86.8315 77.6325 88.1258 77.811 89.4015 77.6555C90.6773 77.5 91.8905 77.0155 92.923 76.25C93.723 75.64 94.4231 74.7975 95.2506 74.185C95.8278 73.7325 96.5211 73.452 97.2506 73.375C97.4931 73.3818 97.7336 73.3313 97.9531 73.2275C98.5081 72.8825 97.8531 72.31 97.7956 71.905C97.7183 71.2573 97.8811 70.6038 98.2531 70.0675C99.2026 68.6515 99.6331 66.9505 99.4716 65.253C99.3101 63.5558 98.5663 61.9665 97.3666 60.755C96.1668 59.5435 94.5848 58.7843 92.8891 58.606C91.1936 58.428 89.4883 58.8418 88.0631 59.7775C86.6556 60.7 85.6105 62.0675 84.5505 63.375C83.6155 64.5275 82.638 65.6625 81.953 66.98C80.343 70.0775 81.283 73.8925 83.863 76.045Z" fill="#002BFF"/>
<path d="M93.41 65.835C94.2952 65.835 95.0125 65.1175 95.0125 64.2325C95.0125 63.3472 94.2952 62.63 93.41 62.63C92.525 62.63 91.8075 63.3472 91.8075 64.2325C91.8075 65.1175 92.525 65.835 93.41 65.835Z" fill="white"/>
<path d="M90.3095 69.625C91.1945 69.625 91.912 68.9075 91.912 68.0225C91.912 67.1375 91.1945 66.42 90.3095 66.42C89.4245 66.42 88.707 67.1375 88.707 68.0225C88.707 68.9075 89.4245 69.625 90.3095 69.625Z" fill="white"/>
<path d="M87.4023 73.1825C88.2873 73.1825 89.0048 72.465 89.0048 71.58C89.0048 70.695 88.2873 69.9775 87.4023 69.9775C86.5173 69.9775 85.7998 70.695 85.7998 71.58C85.7998 72.465 86.5173 73.1825 87.4023 73.1825Z" fill="white"/>
<g opacity="0.46">
<path opacity="0.46" d="M133.75 56.5725C133.625 57.2003 133.361 57.7918 132.978 58.3045C132.595 58.817 132.102 59.2375 131.535 59.535L118.17 66.635C117.666 66.904 117.114 67.0708 116.545 67.126C115.977 67.181 115.403 67.1233 114.856 66.956C114.31 66.7888 113.802 66.5155 113.362 66.1515C112.921 65.7875 112.557 65.34 112.29 64.835L101.638 44.7775C101.098 43.7603 100.984 42.5705 101.321 41.4693C101.658 40.3683 102.418 39.4458 103.435 38.905L116.81 31.8075C118.823 30.7375 121.6 31.5575 122.68 33.605L133.335 53.655C133.815 54.5478 133.962 55.5815 133.75 56.5725Z" fill="#002BFF"/>
</g>
<path d="M129.783 55.0525L116.75 50.085C116.584 50.0205 116.446 49.899 116.362 49.7425C116.277 49.5857 116.251 49.404 116.288 49.23L119.31 35.3275C119.344 35.1795 119.423 35.0455 119.535 34.9432C119.647 34.8407 119.787 34.7747 119.938 34.754C120.088 34.733 120.241 34.7582 120.377 34.8262C120.513 34.8942 120.624 35.002 120.698 35.135L130.708 54C130.778 54.1342 130.807 54.287 130.789 54.4377C130.771 54.5885 130.708 54.7305 130.607 54.8445C130.507 54.9587 130.375 55.0395 130.227 55.0767C130.08 55.1137 129.925 55.1052 129.783 55.0525Z" fill="white"/>
<g opacity="0.46">
<path opacity="0.46" d="M149.25 70.53C149.524 70.726 149.75 70.981 149.911 71.2763C150.073 71.5713 150.167 71.899 150.185 72.235L150.685 80.1825C150.704 80.4825 150.664 80.7833 150.566 81.0675C150.469 81.352 150.316 81.6143 150.117 81.8395C149.918 82.0648 149.677 82.2485 149.406 82.3803C149.136 82.512 148.843 82.5893 148.543 82.6075L136.615 83.3425C136.011 83.3788 135.416 83.1738 134.963 82.7725C134.509 82.3715 134.233 81.8068 134.195 81.2025L133.708 73.25C133.686 72.6495 133.896 72.0638 134.294 71.6135C134.691 71.1633 135.247 70.8827 135.845 70.83L147.77 70.08C148.301 70.0502 148.826 70.2097 149.25 70.53Z" fill="#002BFF"/>
</g>
<path d="M147.665 72.1L142.445 77.2675C142.379 77.3303 142.293 77.3683 142.201 77.3745C142.11 77.381 142.02 77.3555 141.945 77.3025L135.945 72.8275C135.881 72.7792 135.833 72.7125 135.809 72.6363C135.784 72.56 135.783 72.4778 135.806 72.401C135.829 72.3243 135.875 72.2565 135.938 72.2065C136.001 72.1567 136.078 72.1275 136.158 72.1225L147.378 71.43C147.456 71.428 147.533 71.4495 147.6 71.492C147.666 71.5342 147.717 71.5955 147.748 71.6677C147.779 71.7397 147.788 71.8195 147.773 71.8968C147.758 71.9738 147.721 72.0445 147.665 72.1Z" fill="white"/>
<g opacity="0.46">
<path opacity="0.46" d="M68.2495 114.203C67.4668 114.331 66.6753 114.398 65.882 114.403C58.287 114.403 58.542 107.36 58.542 107.36L64.8345 108.72C64.5968 108.138 64.5058 107.506 64.5695 106.88C64.633 106.254 64.8495 105.653 65.1995 105.13C66.6395 103.025 69.9845 104.108 69.9845 104.108L72.0645 102.768L71.6145 105.268L74.402 104.798L72.9695 106.455C74.8945 108.305 77.347 113.938 71.432 116.865C65.517 119.793 62.9645 116.285 62.9645 116.285L65.882 114.405L68.2495 114.203Z" fill="#002BFF"/>
</g>
<path d="M68.1247 107.315C68.6275 107.315 69.0347 106.908 69.0347 106.405C69.0347 105.902 68.6275 105.495 68.1247 105.495C67.6222 105.495 67.2147 105.902 67.2147 106.405C67.2147 106.908 67.6222 107.315 68.1247 107.315Z" fill="white"/>
<path d="M83.9873 236.073H188.055" stroke="black" stroke-width="3.15" stroke-miterlimit="10"/>
</svg>
